<mxfile host="app.diagrams.net" modified="2021-03-22T11:16:35.941Z" agent="5.0 (Macintosh; Intel Mac OS X 11_0_1) AppleWebKit/537.36 (KHTML, like Gecko) Chrome/89.0.4389.82 Safari/537.36" etag="ycouW9HaMnWqWVF9FdKI" version="14.4.5" type="github">
  <diagram id="2vguA9VRlWRnG-YiR0Zg" name="Page-1">
    <mxGraphModel dx="1722" dy="988" grid="1" gridSize="10" guides="1" tooltips="1" connect="1" arrows="1" fold="1" page="1" pageScale="1" pageWidth="850" pageHeight="1100" math="0" shadow="0">
      <root>
        <mxCell id="0" />
        <mxCell id="1" parent="0" />
        <mxCell id="eH79TKneD-y03dZ3sler-3" value="&lt;h1&gt;Simple Blog&lt;/h1&gt;&lt;p&gt;In 3 steps&lt;/p&gt;" style="text;html=1;strokeColor=none;fillColor=none;spacing=5;spacingTop=-20;whiteSpace=wrap;overflow=hidden;rounded=0;" vertex="1" parent="1">
          <mxGeometry x="40" y="40" width="190" height="80" as="geometry" />
        </mxCell>
        <mxCell id="eH79TKneD-y03dZ3sler-17" value="Post" style="swimlane;childLayout=stackLayout;horizontal=1;startSize=30;horizontalStack=0;rounded=1;fontSize=14;fontStyle=0;strokeWidth=2;resizeParent=0;resizeLast=1;shadow=0;dashed=0;align=center;" vertex="1" parent="1">
          <mxGeometry x="40" y="160" width="160" height="120" as="geometry">
            <mxRectangle x="40" y="160" width="60" height="30" as="alternateBounds" />
          </mxGeometry>
        </mxCell>
        <mxCell id="eH79TKneD-y03dZ3sler-18" value="+Title&#xa;+Content&#xa;+CT/UT/DT&#xa;+Tags:Tag&#xa;+Categories:Category" style="align=left;strokeColor=none;fillColor=none;spacingLeft=4;fontSize=12;verticalAlign=top;resizable=0;rotatable=0;part=1;" vertex="1" parent="eH79TKneD-y03dZ3sler-17">
          <mxGeometry y="30" width="160" height="90" as="geometry" />
        </mxCell>
        <mxCell id="eH79TKneD-y03dZ3sler-19" value="Tag" style="swimlane;childLayout=stackLayout;horizontal=1;startSize=30;horizontalStack=0;rounded=1;fontSize=14;fontStyle=0;strokeWidth=2;resizeParent=0;resizeLast=1;shadow=0;dashed=0;align=center;" vertex="1" parent="1">
          <mxGeometry x="240" y="160" width="160" height="120" as="geometry">
            <mxRectangle x="40" y="160" width="60" height="30" as="alternateBounds" />
          </mxGeometry>
        </mxCell>
        <mxCell id="eH79TKneD-y03dZ3sler-20" value="+Title&#xa;+Color&#xa;+CT/UT/DT&#xa;+Posts:Post" style="align=left;strokeColor=none;fillColor=none;spacingLeft=4;fontSize=12;verticalAlign=top;resizable=0;rotatable=0;part=1;" vertex="1" parent="eH79TKneD-y03dZ3sler-19">
          <mxGeometry y="30" width="160" height="90" as="geometry" />
        </mxCell>
        <mxCell id="eH79TKneD-y03dZ3sler-21" value="Category" style="swimlane;childLayout=stackLayout;horizontal=1;startSize=30;horizontalStack=0;rounded=1;fontSize=14;fontStyle=0;strokeWidth=2;resizeParent=0;resizeLast=1;shadow=0;dashed=0;align=center;" vertex="1" parent="1">
          <mxGeometry x="440" y="160" width="160" height="120" as="geometry">
            <mxRectangle x="40" y="160" width="60" height="30" as="alternateBounds" />
          </mxGeometry>
        </mxCell>
        <mxCell id="eH79TKneD-y03dZ3sler-22" value="+Title&#xa;+CT/UT/DT&#xa;+Posts:Post" style="align=left;strokeColor=none;fillColor=none;spacingLeft=4;fontSize=12;verticalAlign=top;resizable=0;rotatable=0;part=1;" vertex="1" parent="eH79TKneD-y03dZ3sler-21">
          <mxGeometry y="30" width="160" height="90" as="geometry" />
        </mxCell>
        <mxCell id="eH79TKneD-y03dZ3sler-55" value="" style="group" vertex="1" connectable="0" parent="1">
          <mxGeometry x="40" y="320" width="240.00000000000003" height="234" as="geometry" />
        </mxCell>
        <mxCell id="eH79TKneD-y03dZ3sler-25" value="  POST   /posts     create" style="swimlane;fontStyle=0;childLayout=stackLayout;horizontal=1;startSize=26;horizontalStack=0;resizeParent=1;resizeParentMax=0;resizeLast=0;collapsible=1;marginBottom=0;align=left;fontSize=14;fontFamily=Courier New;labelBackgroundColor=#ffffff;" vertex="1" collapsed="1" parent="eH79TKneD-y03dZ3sler-55">
          <mxGeometry y="208" width="240.00000000000003" height="26" as="geometry">
            <mxRectangle x="40" y="570" width="160" height="210" as="alternateBounds" />
          </mxGeometry>
        </mxCell>
        <mxCell id="eH79TKneD-y03dZ3sler-26" value="{&#xa; &quot;posts&quot;:[&#xa;  &quot;title&quot;:&quot;title&quot;,&#xa;  &quot;content&quot;:&quot;content&quot;,&#xa;  &quot;tags&quot;:[&#xa;    {&#xa;     &quot;id&quot;:&quot;uuid&quot;&#xa;    }&#xa;   ]&#xa;  }&#xa; ]&#xa;}" style="text;strokeColor=none;spacingLeft=4;spacingRight=4;overflow=hidden;rotatable=0;points=[[0,0.5],[1,0.5]];portConstraint=eastwest;fontSize=12;fontFamily=Courier New;labelBackgroundColor=#ffffff;fillColor=#ffffff;" vertex="1" parent="eH79TKneD-y03dZ3sler-25">
          <mxGeometry y="26" width="240.00000000000003" height="184" as="geometry" />
        </mxCell>
        <mxCell id="eH79TKneD-y03dZ3sler-31" value="  GET    /posts     list" style="swimlane;fontStyle=0;childLayout=stackLayout;horizontal=1;startSize=26;horizontalStack=0;resizeParent=1;resizeParentMax=0;resizeLast=0;collapsible=1;marginBottom=0;align=left;fontSize=14;fontFamily=Courier New;labelBackgroundColor=#ffffff;" vertex="1" collapsed="1" parent="eH79TKneD-y03dZ3sler-55">
          <mxGeometry y="182" width="240.00000000000003" height="26" as="geometry">
            <mxRectangle x="40" y="518" width="160" height="170" as="alternateBounds" />
          </mxGeometry>
        </mxCell>
        <mxCell id="eH79TKneD-y03dZ3sler-32" value="{&#xa; &quot;title&quot;:&quot;title&quot;,&#xa; &quot;content&quot;:&quot;content&quot;,&#xa; &quot;offset&quot;:&quot;offset&quot;,&#xa; &quot;limit&quot;:&quot;limit&quot;&#xa; &quot;tags&quot;:[&#xa;  &quot;id&quot;:&quot;id&quot; &#xa; ]&#xa;}" style="text;strokeColor=none;spacingLeft=4;spacingRight=4;overflow=hidden;rotatable=0;points=[[0,0.5],[1,0.5]];portConstraint=eastwest;fontSize=12;fontFamily=Courier New;labelBackgroundColor=#ffffff;labelBorderColor=none;fillColor=#ffffff;" vertex="1" parent="eH79TKneD-y03dZ3sler-31">
          <mxGeometry y="26" width="240.00000000000003" height="144" as="geometry" />
        </mxCell>
        <mxCell id="eH79TKneD-y03dZ3sler-33" value="  GET    /posts/:id get" style="swimlane;fontStyle=0;childLayout=stackLayout;horizontal=1;startSize=26;horizontalStack=0;resizeParent=1;resizeParentMax=0;resizeLast=0;collapsible=1;marginBottom=0;align=left;fontSize=14;fontFamily=Courier New;labelBackgroundColor=#ffffff;" vertex="1" collapsed="1" parent="eH79TKneD-y03dZ3sler-55">
          <mxGeometry y="156" width="240.00000000000003" height="26" as="geometry">
            <mxRectangle x="40" y="412" width="160" height="170" as="alternateBounds" />
          </mxGeometry>
        </mxCell>
        <mxCell id="eH79TKneD-y03dZ3sler-34" value="{&#xa; &quot;title&quot;:&quot;title&quot;,&#xa; &quot;content&quot;:&quot;content&quot;,&#xa; &quot;tags&quot;:[&#xa;  {&#xa;   &quot;id&quot;:&quot;id&quot;&#xa;  }&#xa; ]&#xa;}" style="text;strokeColor=none;spacingLeft=4;spacingRight=4;overflow=hidden;rotatable=0;points=[[0,0.5],[1,0.5]];portConstraint=eastwest;fontSize=12;fontFamily=Courier New;labelBackgroundColor=#ffffff;fillColor=#ffffff;" vertex="1" parent="eH79TKneD-y03dZ3sler-33">
          <mxGeometry y="26" width="240.00000000000003" height="144" as="geometry" />
        </mxCell>
        <mxCell id="eH79TKneD-y03dZ3sler-35" value="  PUT    /posts" style="swimlane;fontStyle=0;childLayout=stackLayout;horizontal=1;startSize=26;horizontalStack=0;resizeParent=1;resizeParentMax=0;resizeLast=0;collapsible=1;marginBottom=0;align=left;fontSize=14;fontFamily=Courier New;labelBackgroundColor=#ffffff;" vertex="1" collapsed="1" parent="eH79TKneD-y03dZ3sler-55">
          <mxGeometry y="130" width="240.00000000000003" height="26" as="geometry">
            <mxRectangle x="40" y="386" width="160" height="190" as="alternateBounds" />
          </mxGeometry>
        </mxCell>
        <mxCell id="eH79TKneD-y03dZ3sler-36" value="{&#xa; &quot;posts&quot;:[&#xa;  &quot;title&quot;:&quot;title&quot;,&#xa;  &quot;content&quot;:&quot;content&quot;,&#xa;  &quot;tags&quot;:[&#xa;   {&#xa;    &quot;id&quot;:&quot;uuid&quot;&#xa;   }&#xa;  ]&#xa; ]&#xa;}" style="text;strokeColor=none;spacingLeft=4;spacingRight=4;overflow=hidden;rotatable=0;points=[[0,0.5],[1,0.5]];portConstraint=eastwest;fontSize=12;fontFamily=Courier New;labelBackgroundColor=#ffffff;fillColor=#ffffff;" vertex="1" parent="eH79TKneD-y03dZ3sler-35">
          <mxGeometry y="26" width="240.00000000000003" height="164" as="geometry" />
        </mxCell>
        <mxCell id="eH79TKneD-y03dZ3sler-37" value="  PUT    /posts/:id update" style="swimlane;fontStyle=0;childLayout=stackLayout;horizontal=1;startSize=26;horizontalStack=0;resizeParent=1;resizeParentMax=0;resizeLast=0;collapsible=1;marginBottom=0;align=left;fontSize=14;fontFamily=Courier New;labelBackgroundColor=#ffffff;" vertex="1" collapsed="1" parent="eH79TKneD-y03dZ3sler-55">
          <mxGeometry y="104" width="240.00000000000003" height="26" as="geometry">
            <mxRectangle x="40" y="360" width="160" height="170" as="alternateBounds" />
          </mxGeometry>
        </mxCell>
        <mxCell id="eH79TKneD-y03dZ3sler-38" value="{&#xa; &quot;title&quot;:&quot;title&quot;,&#xa; &quot;content&quot;:&quot;content&quot;,&#xa; &quot;tags&quot;:[&#xa;  {&#xa;   &quot;id&quot;:&quot;uuid&quot;&#xa;  }&#xa; ]&#xa;}" style="text;strokeColor=none;spacingLeft=4;spacingRight=4;overflow=hidden;rotatable=0;points=[[0,0.5],[1,0.5]];portConstraint=eastwest;fontSize=12;fontFamily=Courier New;labelBackgroundColor=#ffffff;fillColor=#ffffff;" vertex="1" parent="eH79TKneD-y03dZ3sler-37">
          <mxGeometry y="26" width="240.00000000000003" height="144" as="geometry" />
        </mxCell>
        <mxCell id="eH79TKneD-y03dZ3sler-43" value="  PATCH  /posts" style="swimlane;fontStyle=0;childLayout=stackLayout;horizontal=1;startSize=26;horizontalStack=0;resizeParent=1;resizeParentMax=0;resizeLast=0;collapsible=1;marginBottom=0;align=left;fontSize=14;fontFamily=Courier New;labelBackgroundColor=#ffffff;" vertex="1" collapsed="1" parent="eH79TKneD-y03dZ3sler-55">
          <mxGeometry y="78" width="240.00000000000003" height="26" as="geometry">
            <mxRectangle x="40" y="414" width="160" height="190" as="alternateBounds" />
          </mxGeometry>
        </mxCell>
        <mxCell id="eH79TKneD-y03dZ3sler-44" value="{&#xa; &quot;posts&quot;:[&#xa;  &quot;title&quot;:&quot;title&quot;,&#xa;  ]&#xa; ]&#xa;}" style="text;strokeColor=none;spacingLeft=4;spacingRight=4;overflow=hidden;rotatable=0;points=[[0,0.5],[1,0.5]];portConstraint=eastwest;fontSize=12;fontFamily=Courier New;labelBackgroundColor=#ffffff;fillColor=#ffffff;" vertex="1" parent="eH79TKneD-y03dZ3sler-43">
          <mxGeometry y="26" width="240.00000000000003" height="164" as="geometry" />
        </mxCell>
        <mxCell id="eH79TKneD-y03dZ3sler-39" value="  PATCH  /posts/:id patch" style="swimlane;fontStyle=0;childLayout=stackLayout;horizontal=1;startSize=26;horizontalStack=0;resizeParent=1;resizeParentMax=0;resizeLast=0;collapsible=1;marginBottom=0;align=left;fontSize=14;fontFamily=Courier New;labelBackgroundColor=#ffffff;" vertex="1" collapsed="1" parent="eH79TKneD-y03dZ3sler-55">
          <mxGeometry y="52" width="240.00000000000003" height="26" as="geometry">
            <mxRectangle x="40" y="388" width="160" height="170" as="alternateBounds" />
          </mxGeometry>
        </mxCell>
        <mxCell id="eH79TKneD-y03dZ3sler-40" value="{&#xa; &quot;title&quot;:&quot;title&quot;&#xa;}" style="text;strokeColor=none;spacingLeft=4;spacingRight=4;overflow=hidden;rotatable=0;points=[[0,0.5],[1,0.5]];portConstraint=eastwest;fontSize=12;fontFamily=Courier New;labelBackgroundColor=#ffffff;fillColor=#ffffff;" vertex="1" parent="eH79TKneD-y03dZ3sler-39">
          <mxGeometry y="26" width="240.00000000000003" height="144" as="geometry" />
        </mxCell>
        <mxCell id="eH79TKneD-y03dZ3sler-48" value="  DELETE /posts" style="swimlane;fontStyle=0;childLayout=stackLayout;horizontal=1;startSize=26;horizontalStack=0;resizeParent=1;resizeParentMax=0;resizeLast=0;collapsible=1;marginBottom=0;align=left;fontSize=14;fontFamily=Courier New;labelBackgroundColor=#ffffff;" vertex="1" collapsed="1" parent="eH79TKneD-y03dZ3sler-55">
          <mxGeometry y="26" width="240.00000000000003" height="26" as="geometry">
            <mxRectangle y="26" width="160" height="190" as="alternateBounds" />
          </mxGeometry>
        </mxCell>
        <mxCell id="eH79TKneD-y03dZ3sler-49" value="{&#xa; &quot;posts&quot;:[&#xa;  &quot;title&quot;:&quot;title&quot;,&#xa;  ]&#xa; ]&#xa;}" style="text;strokeColor=none;spacingLeft=4;spacingRight=4;overflow=hidden;rotatable=0;points=[[0,0.5],[1,0.5]];portConstraint=eastwest;fontSize=12;fontFamily=Courier New;labelBackgroundColor=#ffffff;fillColor=#ffffff;" vertex="1" parent="eH79TKneD-y03dZ3sler-48">
          <mxGeometry y="26" width="240.00000000000003" height="164" as="geometry" />
        </mxCell>
        <mxCell id="eH79TKneD-y03dZ3sler-50" value="  DELETE /posts/:id delete" style="swimlane;fontStyle=0;childLayout=stackLayout;horizontal=1;startSize=26;horizontalStack=0;resizeParent=1;resizeParentMax=0;resizeLast=0;collapsible=1;marginBottom=0;align=left;fontSize=14;fontFamily=Courier New;labelBackgroundColor=#ffffff;" vertex="1" collapsed="1" parent="eH79TKneD-y03dZ3sler-55">
          <mxGeometry width="240.00000000000003" height="26" as="geometry">
            <mxRectangle width="160" height="170" as="alternateBounds" />
          </mxGeometry>
        </mxCell>
        <mxCell id="eH79TKneD-y03dZ3sler-51" value="{&#xa; &quot;title&quot;:&quot;title&quot;&#xa;}" style="text;strokeColor=none;spacingLeft=4;spacingRight=4;overflow=hidden;rotatable=0;points=[[0,0.5],[1,0.5]];portConstraint=eastwest;fontSize=12;fontFamily=Courier New;labelBackgroundColor=#ffffff;fillColor=#ffffff;" vertex="1" parent="eH79TKneD-y03dZ3sler-50">
          <mxGeometry y="26" width="240.00000000000003" height="144" as="geometry" />
        </mxCell>
      </root>
    </mxGraphModel>
  </diagram>
</mxfile>
